<svg xmlns="http://www.w3.org/2000/svg" xmlns:xlink="http://www.w3.org/1999/xlink" width="500" zoomAndPan="magnify" viewBox="0 0 375 374.999991" height="500" preserveAspectRatio="xMidYMid meet" version="1.0"><defs><g/><clipPath id="ce8232c486"><path d="M 17.25 0 L 357.75 0 C 362.324219 0 366.710938 1.816406 369.949219 5.050781 C 373.183594 8.289062 375 12.675781 375 17.25 L 375 357.75 C 375 362.324219 373.183594 366.710938 369.949219 369.949219 C 366.710938 373.183594 362.324219 375 357.75 375 L 17.25 375 C 12.675781 375 8.289062 373.183594 5.050781 369.949219 C 1.816406 366.710938 0 362.324219 0 357.75 L 0 17.25 C 0 12.675781 1.816406 8.289062 5.050781 5.050781 C 8.289062 1.816406 12.675781 0 17.25 0 Z M 17.25 0 " clip-rule="nonzero"/></clipPath></defs><g clip-path="url(#ce8232c486)"><rect x="-37.5" width="450" fill="#ffffff" y="-37.499999" height="449.999989" fill-opacity="1"/></g><g fill="#002a62" fill-opacity="1"><g transform="translate(48.032423, 251.173854)"><g><path d="M 67.96875 0 L 67.96875 -148.59375 L 8.09375 -148.59375 L 8.09375 -188.78125 L 170.71875 -188.78125 L 170.71875 -148.59375 L 110.84375 -148.59375 L 110.84375 0 Z M 67.96875 0 "/></g></g></g><g fill="#0051bd" fill-opacity="1"><g transform="translate(137.45497, 313.938742)"><g><path d="M 95.21875 3.25 C 78.644531 3.25 63.929688 -0.347656 51.078125 -7.546875 C 38.234375 -14.742188 28.171875 -24.691406 20.890625 -37.390625 C 13.617188 -50.085938 9.984375 -64.71875 9.984375 -81.28125 C 9.984375 -97.84375 13.582031 -112.472656 20.78125 -125.171875 C 27.976562 -137.867188 37.960938 -147.816406 50.734375 -155.015625 C 63.515625 -162.210938 78.109375 -165.8125 94.515625 -165.8125 C 107.679688 -165.8125 119.835938 -163.488281 130.984375 -158.84375 C 142.128906 -154.195312 151.609375 -147.65625 159.421875 -139.21875 C 167.242188 -130.78125 172.78125 -120.832031 176.03125 -109.375 L 136.328125 -109.375 C 132.453125 -116.5 126.914062 -122.035156 119.71875 -125.984375 C 112.519531 -129.929688 104.351562 -131.90625 95.21875 -131.90625 C 85.769531 -131.90625 77.40625 -129.738281 70.125 -125.40625 C 62.851562 -121.070312 57.164062 -115.109375 53.0625 -107.515625 C 48.957031 -99.929688 46.90625 -91.1875 46.90625 -81.28125 C 46.90625 -71.53125 48.914062 -62.859375 52.9375 -55.265625 C 56.96875 -47.679688 62.617188 -41.679688 69.890625 -37.265625 C 77.171875 -32.859375 85.769531 -30.65625 95.6875 -30.65625 C 107.601562 -30.65625 117.507812 -33.671875 125.40625 -39.703125 C 133.300781 -45.742188 138.410156 -53.71875 140.734375 -63.625 L 88.015625 -63.625 L 88.015625 -92.203125 L 179.75 -92.203125 C 180.675781 -78.265625 179.320312 -65.488281 175.6875 -53.875 C 172.050781 -42.257812 166.476562 -32.15625 158.96875 -23.5625 C 151.457031 -14.976562 142.320312 -8.363281 131.5625 -3.71875 C 120.800781 0.925781 108.6875 3.25 95.21875 3.25 Z M 95.21875 3.25 "/></g></g></g></svg>